<svg width="612" height="293" viewBox="0 0 612 293" fill="none" xmlns="http://www.w3.org/2000/svg">
<path d="M357.5 57.6249C358.558 57.6252 358.558 57.6252 359.637 57.6255C412.201 57.7807 462.033 77.4717 510.375 96.2499C511.552 96.7035 512.728 97.1571 513.94 97.6244C515.528 98.2511 515.528 98.2511 517.149 98.8905C518.068 99.2518 518.988 99.613 519.935 99.9853C522 101 522 101 523 103C522.34 103 521.68 103 521 103C521 104.32 521 105.64 521 107C521.874 107.2 521.874 107.2 522.766 107.405C526.334 108.355 529.625 109.895 533 111.375C533.712 111.679 534.423 111.983 535.157 112.297C537.127 113.157 539.065 114.065 541 115C541.818 115.383 542.635 115.766 543.477 116.16C546.11 119.34 545.493 123.087 545.375 127.062C545.373 128.305 545.373 128.305 545.371 129.572C545.281 135.719 545.281 135.719 543 138C543.327 140.291 543.327 140.291 544 143C544.778 150.713 545.531 158.348 544 166C542.34 167.66 540.362 167.13 538.082 167.133C537.075 167.134 536.068 167.135 535.03 167.137C533.968 167.133 532.906 167.129 531.813 167.125C530.771 167.129 529.728 167.133 528.655 167.137C523.664 167.13 518.902 167.067 514 166C514 165.67 514 165.34 514 165C518.29 164.67 522.58 164.34 527 164C527.31 162.298 527.31 162.298 527.625 160.562C528.728 155.583 530.33 150.811 532 146C532.261 145.234 532.523 144.467 532.792 143.678C534.759 138.121 534.759 138.121 537 137C536.835 136.051 536.67 135.102 536.5 134.125C536 131 536 131 536 129C523.633 133.595 516.964 139.239 510.387 150.848C509.929 151.558 509.472 152.268 509 153C508.34 153 507.68 153 507 153C505.686 148.75 504.374 144.5 503.063 140.25C502.503 138.44 502.503 138.44 501.932 136.594C501.395 134.853 501.395 134.853 500.848 133.078C500.518 132.01 500.188 130.941 499.848 129.841C498.417 125.046 497.54 121.067 498 116C499.438 114.062 499.438 114.062 502 113C506.501 112.562 510.643 112.772 515 114C515 113.34 515 112.68 515 112C516.32 112 517.64 112 519 112C518.18 111.734 517.361 111.469 516.516 111.195C515.438 110.842 514.361 110.489 513.25 110.125C512.183 109.777 511.116 109.429 510.016 109.07C507.545 108.193 505.303 107.241 503 106C503 105.01 503 104.02 503 103C502.117 102.876 501.234 102.751 500.324 102.623C497.237 102.044 494.713 101.233 491.824 100.031C490.845 99.6295 489.866 99.2279 488.857 98.8141C487.811 98.3804 486.765 97.9467 485.688 97.4999C467.869 90.2593 449.863 83.7821 431.5 78.0624C430.29 77.6846 429.079 77.3068 427.831 76.9176C421.591 75.0029 415.396 73.3051 409 71.9999C405.143 79.9805 401.833 87.9151 398.981 96.2968C398 98.9999 398 98.9999 397 99.9999C413.83 102.475 413.83 102.475 431 105C431 105.66 431 106.32 431 107C398.678 108.955 366.807 107.739 334.544 105.549C323.759 104.819 312.972 104.137 302.184 103.469C300.571 103.369 300.571 103.369 298.926 103.267C278.397 102.005 257.873 101.156 237.313 100.625C236.604 100.606 235.896 100.587 235.165 100.568C155.849 97.9048 155.849 97.9048 84.0003 128C83.0103 128.99 83.0103 128.99 82.0003 130C82.3179 131.337 82.6536 132.67 83.0003 134C82.6548 136.198 82.6548 136.198 82.0042 138.547C81.7754 139.391 81.5466 140.235 81.3108 141.105C81.064 141.978 80.8171 142.851 80.5628 143.75C80.3198 144.638 80.0768 145.526 79.8264 146.441C79.2263 148.63 78.6173 150.816 78.0003 153C70.2503 152.141 70.2503 152.141 68.0003 150.875C66.3959 147.867 66.7119 145.345 67.0003 142C71.3642 127.963 91.0319 117.282 103.25 110.75C140.151 91.7093 179.858 91.9351 220.438 91.8749C221.978 91.8709 221.978 91.8709 223.549 91.8668C244.955 91.8244 244.955 91.8244 255 92.9999C255 92.3399 255 91.6799 255 90.9999C295.763 68.6728 295.763 68.6728 317.188 62.6874C318.487 62.3232 318.487 62.3232 319.813 61.9516C332.253 58.6571 344.661 57.5889 357.5 57.6249ZM263 89.9999C263 90.6599 263 91.3199 263 91.9999C261.35 91.9999 259.7 91.9999 258 91.9999C258 92.3299 258 92.6599 258 92.9999C258.774 92.9883 259.547 92.9767 260.344 92.9647C261.386 92.9557 262.427 92.9467 263.5 92.9374C264.521 92.9258 265.542 92.9142 266.594 92.9022C270 92.9999 270 92.9999 273.461 93.4655C278.968 94.174 284.492 94.3917 290.035 94.6483C292.458 94.7664 294.88 94.8844 297.302 95.0026C299.202 95.0936 299.202 95.0936 301.141 95.1865C307.778 95.5053 314.415 95.8337 321.051 96.1679C322.056 96.2184 322.056 96.2184 323.08 96.27C338.618 97.0558 354.142 98.0391 369.665 99.0854C370.588 99.1469 371.511 99.2085 372.462 99.2719C374.157 99.3854 375.853 99.5009 377.548 99.6191C378.3 99.6696 379.052 99.7201 379.827 99.7721C380.469 99.8164 381.11 99.8606 381.771 99.9062C384.845 100.035 387.924 99.9999 391 99.9999C394.3 89.7699 397.6 79.5399 401 68.9999C387.932 66.3658 387.932 66.3658 374.813 64.8124C373.837 64.7342 372.862 64.6559 371.856 64.5753C332.319 61.637 298.304 72.6638 263 89.9999ZM507 119C507.621 125.575 509.149 131.667 511 138C511.99 138 512.98 138 514 138C514.33 137.01 514.66 136.02 515 135C516.313 134.293 517.653 133.638 519 133C520.052 132.216 521.104 131.432 522.188 130.625C526.173 127.709 530.462 125.886 535 124C535.66 123.67 536.32 123.34 537 123C537 122.34 537 121.68 537 121C537.99 120.67 538.98 120.34 540 120C534.037 119.064 528.301 118.972 522.27 119.035C518.44 118.994 514.719 118.624 510.926 118.121C508.916 117.833 508.916 117.833 507 119ZM77.0003 132C75.3635 133.96 75.3635 133.96 74.0003 136C77.1222 134.691 77.1222 134.691 79.0003 132C78.3403 132 77.6803 132 77.0003 132ZM72.0003 136C70.3635 137.96 70.3635 137.96 69.0003 140C72.1222 138.691 72.1222 138.691 74.0003 136C73.3403 136 72.6803 136 72.0003 136Z" fill="black"/>
<path d="M505 103C510.458 102.889 515.615 103.083 521 104C521 104.99 521 105.98 521 107C521.583 107.134 522.166 107.267 522.766 107.405C526.334 108.355 529.625 109.895 533 111.375C534.068 111.831 534.068 111.831 535.156 112.297C537.127 113.157 539.065 114.065 541 115C541.817 115.383 542.635 115.766 543.477 116.16C546.11 119.34 545.493 123.087 545.375 127.062C545.374 127.891 545.373 128.719 545.371 129.572C545.281 135.719 545.281 135.719 543 138C543.327 140.291 543.327 140.291 544 143C544.778 150.713 545.531 158.348 544 166C542.34 167.66 540.362 167.13 538.082 167.133C537.075 167.134 536.067 167.135 535.03 167.137C533.968 167.133 532.906 167.129 531.813 167.125C530.77 167.129 529.728 167.133 528.655 167.137C523.664 167.13 518.902 167.067 514 166C514 165.67 514 165.34 514 165C520.435 164.505 520.435 164.505 527 164C527.31 162.298 527.31 162.298 527.625 160.562C528.728 155.583 530.33 150.811 532 146C532.261 145.234 532.523 144.467 532.792 143.678C534.759 138.121 534.759 138.121 537 137C536.753 135.577 536.753 135.577 536.5 134.125C536 131 536 131 536 129C523.633 133.595 516.964 139.239 510.387 150.848C509.7 151.913 509.7 151.913 509 153C508.34 153 507.68 153 507 153C505.686 148.75 504.374 144.5 503.063 140.25C502.69 139.043 502.316 137.837 501.932 136.594C501.574 135.434 501.216 134.273 500.848 133.078C500.518 132.01 500.188 130.941 499.848 129.841C498.417 125.047 497.54 121.067 498 116C499.438 114.062 499.438 114.062 502 113C506.501 112.562 510.643 112.772 515 114C515 113.34 515 112.68 515 112C516.32 112 517.64 112 519 112C518.169 111.734 517.337 111.469 516.481 111.195C515.394 110.842 514.307 110.489 513.188 110.125C512.109 109.777 511.03 109.429 509.918 109.07C507 108 507 108 504 106C504.33 105.01 504.66 104.02 505 103ZM507 119C507.621 125.575 509.149 131.667 511 138C511.99 138 512.98 138 514 138C514.33 137.01 514.66 136.02 515 135C516.313 134.293 517.653 133.638 519 133C520.052 132.216 521.104 131.432 522.188 130.625C526.173 127.71 530.462 125.886 535 124C535.66 123.67 536.32 123.34 537 123C537 122.34 537 121.68 537 121C537.99 120.67 538.98 120.34 540 120C534.037 119.065 528.301 118.972 522.27 119.035C518.44 118.994 514.719 118.624 510.926 118.121C508.916 117.833 508.916 117.833 507 119Z" fill="#DC1F2E"/>
<path d="M232.746 145.867C234.232 145.866 235.718 145.865 237.204 145.863C241.139 145.86 245.074 145.865 249.009 145.871C251.449 145.875 253.888 145.877 256.327 145.878C283.561 145.892 310.776 146.23 338 147C338 147.33 338 147.66 338 148C333.007 148.228 328.014 148.456 323.021 148.683C321.128 148.77 319.235 148.856 317.343 148.942C304.541 149.526 291.738 150.101 278.935 150.666C274.43 150.865 269.924 151.065 265.419 151.265C260.972 151.462 256.525 151.657 252.079 151.852C249.248 151.976 246.418 152.101 243.588 152.227C241.656 152.313 239.723 152.397 237.79 152.48C234.193 152.641 230.596 152.817 227 153C226.343 153.031 225.686 153.063 225.009 153.095C222.994 153.194 220.979 153.304 218.964 153.418C217.773 153.481 216.582 153.545 215.355 153.61C209.841 154.251 206.098 155.595 202.062 159.375C196.271 164.125 187.553 167 180 167C183.937 158.464 191.092 152.77 199 148C209.207 144.598 222.132 145.85 232.746 145.867Z" fill="black"/>
<path d="M81 190C86.1356 189.876 91.2712 189.753 96.5625 189.625C98.1694 189.57 99.7763 189.516 101.432 189.46C113.219 189.322 113.219 189.322 117.484 192.668C120.059 195.53 120.878 197.78 120.688 201.688C120.671 202.62 120.654 203.552 120.637 204.512C119.831 207.661 118.668 208.263 116 210C115.34 210.99 114.68 211.98 114 213C114.598 213.743 115.196 214.485 115.812 215.25C116.534 216.158 117.256 217.065 118 218C118.577 218.701 119.155 219.403 119.75 220.125C121 222 121 222 121 225C118.305 225.305 118.305 225.305 115 225C112.445 222.883 112.445 222.883 110.125 220.125C109.344 219.22 108.563 218.315 107.758 217.383C106 215 106 215 106 213C100.06 213.33 94.12 213.66 88 214C88.0206 215.629 88.0412 217.259 88.0625 218.938C88.0839 220.625 88.0721 222.314 88 224C87.505 224.495 87.505 224.495 87 225C85.02 225 83.04 225 81 225C81 213.45 81 201.9 81 190ZM88 195C88 198.96 88 202.92 88 207C91.3955 207.276 94.7887 207.522 98.1875 207.75C99.1472 207.831 100.107 207.913 101.096 207.996C106.881 208.381 106.881 208.381 112.137 206.172C114.164 204.137 114.164 204.137 114.625 201.5C114.167 198.865 114.167 198.865 112.137 196.859C107.534 194.131 103.429 194.567 98.1875 194.75C97.2085 194.768 96.2294 194.786 95.2207 194.805C92.8134 194.852 90.4066 194.923 88 195Z" fill="black"/>
<path d="M413 190C417.971 189.876 422.941 189.752 428.062 189.625C429.617 189.57 431.172 189.516 432.774 189.459C444.18 189.322 444.18 189.322 448.434 192.898C451.015 195.668 451.94 197.472 452.375 201.312C451.904 205.94 450.456 207.038 447 210C446.34 210.99 445.68 211.98 445 213C445.577 213.699 446.155 214.397 446.75 215.117C447.493 216.027 448.235 216.937 449 217.875C449.743 218.78 450.485 219.685 451.25 220.617C453 223 453 223 453 225C449.738 225.34 449.738 225.34 446 225C443.98 222.629 443.98 222.629 442.188 219.562C439.232 215.514 439.232 215.514 434.838 213.381C429.563 212.652 424.309 212.754 419 213C419 216.96 419 220.92 419 225C417.02 225 415.04 225 413 225C413 213.45 413 201.9 413 190ZM419 195C419 198.96 419 202.92 419 207C422.997 208.332 426.688 208.263 430.875 208.312C431.678 208.341 432.481 208.37 433.309 208.4C437.386 208.444 439.481 208.318 443.035 206.137C445.183 204.158 445.183 204.158 445.562 201.5C444.773 197.992 443.984 197.08 441 195C437.241 194.496 433.534 194.625 429.75 194.75C428.203 194.777 428.203 194.777 426.625 194.805C424.083 194.852 421.541 194.923 419 195Z" fill="black"/>
<path d="M192 190C202 190 202 190 204.523 191.844C205.134 192.72 205.745 193.597 206.375 194.5C207.094 195.487 207.814 196.475 208.555 197.492C208.937 198.045 209.32 198.598 209.714 199.167C211.689 201.981 213.778 204.707 215.854 207.447C217.896 210.149 219.913 212.869 221.928 215.592C222.934 216.979 222.934 216.979 224 218C224.33 208.76 224.66 199.52 225 190C226.98 190 228.96 190 231 190C231 201.55 231 213.1 231 225C221 225 221 225 218.223 222.902C217.51 221.924 216.797 220.946 216.062 219.938C215.666 219.413 215.27 218.888 214.862 218.347C214.007 217.205 213.167 216.051 212.341 214.888C210.899 212.857 209.416 210.86 207.926 208.863C205.25 205.266 202.616 201.641 200 198C198.225 199.775 198.765 202.378 198.684 204.785C198.642 205.955 198.6 207.125 198.557 208.33C198.517 209.562 198.478 210.793 198.438 212.062C198.373 213.916 198.373 213.916 198.307 215.807C198.2 218.871 198.098 221.935 198 225C196.02 225 194.04 225 192 225C192 213.45 192 201.9 192 190ZM198 195C199 197 199 197 199 197L198 195Z" fill="black"/>
<path d="M374.5 189.125C375.576 189.098 376.653 189.071 377.762 189.043C384.524 189.101 389.244 190.244 394.361 194.816C397.362 198.815 397.271 202.656 397.062 207.5C397.089 208.411 397.115 209.323 397.143 210.262C397.06 215.236 396.274 218.461 392.777 222.102C387.187 226.308 381.247 226.029 374.5 225.875C373.315 225.902 372.131 225.929 370.91 225.957C365.235 225.913 360.85 225.583 356.223 222.102C352.726 218.461 351.94 215.236 351.857 210.262C351.884 209.35 351.91 208.439 351.938 207.5C351.898 206.589 351.859 205.677 351.818 204.738C351.85 200.743 352.208 198.055 354.639 194.816C360.715 189.387 366.615 188.927 374.5 189.125ZM359 200C358.055 203.616 358.055 203.616 358.25 207.5C358.235 208.789 358.219 210.078 358.203 211.406C359.031 215.139 359.964 216.864 363.097 219.106C366.794 220.842 370.484 220.719 374.5 220.625C375.329 220.644 376.158 220.664 377.012 220.684C381.082 220.651 384.182 220.339 387.547 217.93C390.635 214.242 390.807 212.267 390.75 207.5C390.773 205.566 390.773 205.566 390.797 203.594C389.969 199.861 389.036 198.136 385.903 195.894C382.206 194.158 378.516 194.281 374.5 194.375C373.257 194.346 373.257 194.346 371.988 194.316C365.999 194.364 362.9 195.342 359 200Z" fill="black"/>
<path d="M268.375 189.687C269.793 189.713 271.211 189.735 272.629 189.756C276.087 189.811 279.543 189.897 283 190C283 191.65 283 193.3 283 195C281.789 195.03 281.789 195.03 280.553 195.06C276.91 195.155 273.268 195.265 269.625 195.375C268.354 195.406 267.083 195.437 265.773 195.469C264.562 195.507 263.35 195.546 262.102 195.586C260.421 195.633 260.421 195.633 258.706 195.681C255.853 195.734 255.853 195.734 254 198C254.29 201.307 254.29 201.307 256 204C257.637 204.097 259.278 204.132 260.918 204.141C261.925 204.16 262.933 204.179 263.971 204.199C266.096 204.233 268.221 204.251 270.346 204.254C279.049 204.464 279.049 204.464 282.691 207.234C285.119 210.143 285.82 211.274 285.75 215C285.765 215.825 285.781 216.65 285.797 217.5C284.636 221.143 282.198 223.095 279 225C275.381 225.568 275.381 225.568 271.414 225.488C270.712 225.481 270.01 225.474 269.287 225.467C267.066 225.439 264.846 225.376 262.625 225.312C261.111 225.287 259.596 225.264 258.082 225.244C254.387 225.189 250.694 225.103 247 225C247 223.35 247 221.7 247 220C247.868 219.975 248.736 219.95 249.63 219.924C252.847 219.829 256.064 219.73 259.28 219.628C260.673 219.584 262.066 219.543 263.459 219.503C265.46 219.445 267.46 219.381 269.461 219.316C271.268 219.261 271.268 219.261 273.111 219.205C275.94 219.189 275.94 219.189 278 218C278.658 214.971 278.658 214.971 279 212C276.014 211.004 274.005 210.876 270.887 210.859C269.886 210.84 268.885 210.821 267.854 210.801C265.755 210.767 263.656 210.749 261.557 210.746C252.962 210.537 252.962 210.537 249.316 207.766C246.88 204.857 246.18 203.731 246.25 200C246.235 199.175 246.219 198.35 246.203 197.5C247.123 194.614 248.3 192.804 250.727 190.959C256.157 188.667 262.572 189.509 268.375 189.687Z" fill="black"/>
<path d="M545 189C547.64 189 550.28 189 553 189C553 193.95 553 198.9 553 204C557.152 204.868 559.008 205.205 563 204C566.179 201.388 568.783 198.264 571.356 195.068C575.372 190.174 575.372 190.174 579.391 189.059C580.682 189.03 580.682 189.03 582 189C582 193.481 581.719 193.769 578.812 196.812C575.531 200.368 572.74 204.015 570 208C570.759 208.748 571.519 209.495 572.301 210.266C573.305 211.26 574.309 212.255 575.312 213.25C575.812 213.741 576.312 214.232 576.826 214.738C582.369 220.244 582.369 220.244 584 223C583.67 223.99 583.34 224.98 583 226C580.91 226.434 580.91 226.434 578 226C575.554 223.93 573.541 221.473 571.438 219.062C567.012 214.264 563.958 211.087 557.125 210.625C554.27 210.675 554.27 210.675 552 211C552.012 211.999 552.023 212.998 552.035 214.027C552.044 215.318 552.053 216.608 552.062 217.938C552.074 219.225 552.086 220.513 552.098 221.84C552 225 552 225 551 226C549.35 226 547.7 226 546 226C545.67 213.79 545.34 201.58 545 189Z" fill="#DC1F2E"/>
<path d="M301 190C308.177 189.814 308.177 189.814 315.5 189.625C317.74 189.543 317.74 189.543 320.025 189.459C327.023 189.372 332.375 189.381 337.693 194.302C339.685 196.89 340.068 198.755 340 202C340.021 202.99 340.041 203.98 340.062 205C338.683 208.894 336.908 210.538 333.531 212.849C328.681 215.055 323.725 214.619 318.5 214.375C317.391 214.348 316.283 214.321 315.141 214.293C312.426 214.223 309.713 214.115 307 214C307 217.63 307 221.26 307 225C305.02 225 303.04 225 301 225C301 213.45 301 201.9 301 190ZM307 195C307 199.62 307 204.24 307 209C310.397 209.108 313.79 209.187 317.188 209.25C318.147 209.284 319.107 209.317 320.096 209.352C324.54 209.413 327.233 209.447 331.137 207.172C333.235 205.079 333.235 205.079 333.625 202C333.235 198.921 333.235 198.921 331.137 196.828C326.53 194.143 322.414 194.567 317.188 194.75C316.208 194.768 315.229 194.786 314.221 194.805C311.813 194.852 309.407 194.923 307 195Z" fill="black"/>
<path d="M151 190C154.114 189.534 156.9 189.373 160 190C162.425 192.138 163.654 194.747 165.062 197.625C165.894 199.184 166.726 200.742 167.559 202.301C167.963 203.088 168.368 203.875 168.785 204.686C169.932 206.87 171.144 208.989 172.41 211.105C172.785 211.733 173.159 212.361 173.545 213.007C173.901 213.603 174.258 214.199 174.625 214.812C178 220.502 178 220.502 178 225C176.02 225 174.04 225 172 225C170.68 222.36 169.36 219.72 168 217C159.75 216.67 151.5 216.34 143 216C142.34 217.98 141.68 219.96 141 222C140.34 222.99 139.68 223.98 139 225C135.375 225.187 135.375 225.187 132 225C133.304 221.561 134.804 218.417 136.645 215.234C137.157 214.344 137.669 213.453 138.197 212.535C138.73 211.616 139.263 210.697 139.812 209.75C140.861 207.933 141.909 206.115 142.957 204.297C143.464 203.417 143.972 202.537 144.495 201.631C146.701 197.775 148.857 193.891 151 190ZM155 195C153.661 197.289 152.329 199.581 151 201.875C150.618 202.526 150.237 203.177 149.844 203.848C147.724 207.203 147.724 207.203 147 211C152.94 211 158.88 211 165 211C163.721 208.546 162.442 206.091 161.125 203.562C160.526 202.401 160.526 202.401 159.915 201.217C158.142 197.472 158.142 197.472 155 195Z" fill="black"/>
<path d="M544 126C544.222 127.623 544.427 129.249 544.625 130.875C544.799 132.233 544.799 132.233 544.977 133.617C544.984 134.404 544.992 135.19 545 136C544.34 136.66 543.68 137.32 543 138C543.327 140.291 543.327 140.291 544 143C544.777 150.713 545.53 158.348 544 166C542.34 167.66 540.362 167.13 538.082 167.133C536.571 167.135 536.571 167.135 535.029 167.137C533.968 167.133 532.906 167.129 531.812 167.125C530.77 167.129 529.728 167.133 528.654 167.137C523.663 167.13 518.902 167.067 514 166C514 165.67 514 165.34 514 165C520.435 164.505 520.435 164.505 527 164C527.206 162.866 527.412 161.731 527.625 160.563C528.728 155.583 530.329 150.811 532 146C532.261 145.234 532.522 144.468 532.792 143.678C534.759 138.121 534.759 138.121 537 137C536.814 136.093 536.629 135.185 536.438 134.25C536.043 131.32 535.902 129.696 537 127C539.463 125.769 541.28 125.929 544 126Z" fill="black"/>
<path d="M505 190C505 191.65 505 193.3 505 195C501.79 196.605 498.367 195.824 494.875 195.563C492.276 195.377 489.678 195.191 487 195C487 204.9 487 214.8 487 225C485.02 225 483.04 225 481 225C480.832 221.049 480.672 217.098 480.518 213.147C480.438 211.141 480.353 209.135 480.268 207.129C480.219 205.872 480.171 204.615 480.121 203.32C480.074 202.158 480.027 200.995 479.978 199.797C480 197 480 197 481 195C475.06 195 469.12 195 463 195C463 193.35 463 191.7 463 190C468.338 189.832 473.677 189.672 479.016 189.518C480.831 189.464 482.647 189.409 484.463 189.352C487.074 189.27 489.685 189.195 492.297 189.121C493.513 189.081 493.513 189.081 494.753 189.039C498.367 188.944 501.525 189.012 505 190Z" fill="black"/>
<path d="M27 190C40.53 190 54.06 190 68 190C68.495 192.475 68.495 192.475 69 195C63.06 195 57.12 195 51 195C51 204.9 51 214.8 51 225C48.03 225.495 48.03 225.495 45 226C43.5518 223.104 43.9948 220.688 44.1211 217.461C44.1694 216.159 44.2178 214.857 44.2676 213.516C44.3241 212.135 44.3807 210.755 44.4375 209.375C44.4907 207.987 44.5435 206.599 44.5957 205.211C44.7257 201.807 44.8607 198.403 45 195C44.01 195.33 43.02 195.66 42 196C39.4191 195.913 36.8831 195.771 34.3125 195.562C33.2597 195.484 33.2597 195.484 32.1855 195.404C30.4566 195.275 28.7282 195.138 27 195C27 193.35 27 191.7 27 190Z" fill="black"/>
<path d="M502 113C502.66 113.66 503.32 114.32 504 115C506.584 115.167 506.584 115.167 509 115C508.67 115.66 508.34 116.32 508 117C507.34 117 506.68 117 506 117C506.308 119.48 506.621 121.959 506.938 124.438C507.025 125.145 507.112 125.852 507.201 126.58C507.382 130.088 507.382 130.088 509 133C509.041 134.666 509.043 136.334 509 138C513.883 137.582 515.743 135.508 519 132C522.414 128.814 525.399 128.442 530 128C529.67 128.66 529.34 129.32 529 130C528.01 130 527.02 130 526 130C526 130.99 526 131.98 526 133C525.175 133.495 524.35 133.99 523.5 134.5C517.593 138.106 513.731 144.945 510.387 150.848C509.7 151.913 509.7 151.913 509 153C508.34 153 507.68 153 507 153C505.686 148.751 504.374 144.5 503.063 140.25C502.69 139.043 502.316 137.837 501.932 136.594C501.574 135.434 501.216 134.273 500.848 133.078C500.518 132.01 500.188 130.942 499.848 129.841C498.417 125.047 497.54 121.067 498 116C500 114.062 500 114.062 502 113Z" fill="#DC1F2E"/>
<path d="M515 112C517.31 112 519.62 112 522 112C522 112.66 522 113.32 522 114C522.99 114 523.98 114 525 114C525.33 114.66 525.66 115.32 526 116C528.349 116.689 528.349 116.689 531.062 117.125C531.982 117.293 532.901 117.46 533.848 117.633C534.913 117.815 534.913 117.815 536 118C528.145 122.777 515.75 119.883 507 119C507.289 120.036 507.577 121.073 507.875 122.141C508.25 123.51 508.625 124.88 509 126.25C509.191 126.932 509.382 127.614 509.578 128.316C510.5 131.706 511 134.458 511 138C510.34 138 509.68 138 509 138C507.226 133.37 506.604 129.04 506.375 124.125C506.336 123.437 506.298 122.748 506.258 122.039C506.165 120.36 506.081 118.68 506 117C506.66 116.67 507.32 116.34 508 116C506.35 116 504.7 116 503 116C503 115.01 503 114.02 503 113C511.571 112.857 511.571 112.857 515 114C515 113.34 515 112.68 515 112Z" fill="#DC1F2E"/>
<path d="M502 113C502.66 113.66 503.32 114.32 504 115C506.583 115.167 506.583 115.167 509 115C508.67 115.66 508.34 116.32 508 117C507.34 117 506.68 117 506 117C506.31 119.396 506.623 121.792 506.937 124.188C507.024 124.861 507.111 125.535 507.201 126.229C507.678 129.851 508.23 133.428 509 137C508.34 137 507.68 137 507 137C507 137.66 507 138.32 507 139C506.34 139 505.68 139 505 139C503.502 135.629 503 133.796 503 130C502.01 130 501.02 130 500 130C498.434 125.203 497.41 121.11 498 116C500 114.062 500 114.062 502 113Z" fill="#DC1F2E"/>
<path d="M543 117C543.66 117.33 544.32 117.66 545 118C545 120.64 545 123.28 545 126C542.36 126.33 539.72 126.66 537 127C537 127.66 537 128.32 537 129C531.555 130.485 531.555 130.485 526 132C526 130 526 130 527 129C526.34 128.67 525.68 128.34 525 128C528.855 125.43 532.52 124.142 537 123C537 122.34 537 121.68 537 121C538.32 121 539.64 121 541 121C540.67 122.32 540.34 123.64 540 125C541.32 125 542.64 125 544 125C543.67 122.36 543.34 119.72 543 117Z" fill="#DC1F2E"/>
<path d="M548 208C548.66 208 549.32 208 550 208C551.135 211.61 551.1 214.984 551.063 218.75C551.054 219.92 551.045 221.091 551.035 222.297C551.024 223.189 551.012 224.081 551 225C549.68 225 548.36 225 547 225C546.973 222.354 546.953 219.708 546.938 217.062C546.929 216.308 546.921 215.553 546.912 214.775C546.904 212.85 546.948 210.925 547 209C547.33 208.67 547.66 208.34 548 208Z" fill="#DC1F2E"/>
<path d="M515 112C517.31 112 519.62 112 522 112C522 112.66 522 113.32 522 114C522.99 114 523.98 114 525 114C525.33 114.66 525.66 115.32 526 116C528.349 116.689 528.349 116.689 531.062 117.125C531.982 117.293 532.901 117.46 533.848 117.633C534.913 117.815 534.913 117.815 536 118C532.479 120.175 529.594 120.269 525.5 120.25C524.376 120.255 523.252 120.26 522.094 120.266C519.15 120.013 517.483 119.534 515 118C516.134 117.856 517.269 117.711 518.438 117.562C521.808 117.388 521.808 117.388 523 116C520.36 115.01 517.72 114.02 515 113C515 112.67 515 112.34 515 112Z" fill="#DC1F2E"/>
<path d="M505 103C510.458 102.889 515.615 103.083 521 104C521 104.99 521 105.98 521 107C522.32 107.33 523.64 107.66 525 108C524.01 108.33 523.02 108.66 522 109C521.01 108.34 520.02 107.68 519 107C517.286 106.563 515.553 106.191 513.812 105.875C512.911 105.707 512.01 105.54 511.082 105.367C510.395 105.246 509.708 105.125 509 105C509 105.66 509 106.32 509 107C509.66 107 510.32 107 511 107C511 107.66 511 108.32 511 109C509.02 108.34 507.04 107.68 505 107C505 105.68 505 104.36 505 103Z" fill="#DC1F2E"/>
<path d="M502 113C502.66 113.66 503.32 114.32 504 115C506.583 115.167 506.583 115.167 509 115C508.525 115.351 508.051 115.701 507.562 116.062C505.321 118.842 505.329 121.514 505 125C503.68 125.33 502.36 125.66 501 126C500.776 124.586 500.572 123.168 500.375 121.75C500.259 120.961 500.143 120.172 500.023 119.359C499.997 116.678 500.634 115.273 502 113Z" fill="#DC1F2E"/>
<path d="M547 191C548.32 191 549.64 191 551 191C551.081 192.77 551.139 194.541 551.188 196.312C551.222 197.299 551.257 198.285 551.293 199.301C551 202 551 202 549.488 203.855C548.997 204.233 548.506 204.611 548 205C548 203.02 548 201.04 548 199C547.34 199 546.68 199 546 199C546.33 196.36 546.66 193.72 547 191Z" fill="#DC1F2E"/>
<path d="M567 206C567 207.65 567 209.3 567 211C565.04 210.718 563.082 210.424 561.125 210.125C559.489 209.881 559.489 209.881 557.82 209.633C555 209 555 209 553 207C557.724 206.349 562.22 205.881 567 206Z" fill="#DC1F2E"/>
<path d="M578 189C580.75 189.25 580.75 189.25 583 190C581.65 194.419 579.739 196.343 576 199C576 197.35 576 195.7 576 194C577.32 194 578.64 194 580 194C580 193.01 580 192.02 580 191C578.02 191.66 576.04 192.32 574 193C575.688 190.938 575.688 190.938 578 189Z" fill="#DC1F2E"/>
<path d="M545 189C547.64 189 550.28 189 553 189C552.67 193.95 552.34 198.9 552 204C551.67 204 551.34 204 551 204C551 199.71 551 195.42 551 191C549.68 191 548.36 191 547 191C547 192.65 547 194.3 547 196C545.539 193.353 545 192.106 545 189Z" fill="#DC1F2E"/>
<path d="M506 118C506.99 118.33 507.98 118.66 509 119C508.34 119 507.68 119 507 119C507.289 120.036 507.577 121.073 507.875 122.141C508.25 123.51 508.625 124.88 509 126.25C509.286 127.273 509.286 127.273 509.578 128.316C510.5 131.706 511 134.458 511 138C510.34 138 509.68 138 509 138C507.289 133.478 506.648 129.444 506.375 124.625C506.3 123.38 506.225 122.135 506.148 120.852C506.099 119.911 506.05 118.97 506 118Z" fill="#DC1F2E"/>
<path d="M500 114C500.66 114.33 501.32 114.66 502 115C501.835 115.619 501.67 116.238 501.5 116.875C500.799 121.255 500.922 125.574 501 130C497.884 125.326 497.687 121.621 498 116C498.66 115.34 499.32 114.68 500 114Z" fill="#DC1F2E"/>
<path d="M525 109C527.688 109.312 527.688 109.312 530 110C529.01 110.33 528.02 110.66 527 111C527.66 112.98 528.32 114.96 529 117C526.114 116.602 525.178 116.21 523.25 113.938C522.838 113.298 522.425 112.659 522 112C523.188 110.438 523.188 110.438 525 109Z" fill="#DC1F2E"/>
<path d="M505 144C505.66 144 506.32 144 507 144C507 145.65 507 147.3 507 149C508.32 148.67 509.64 148.34 511 148C510.688 149.938 510.688 149.938 510 152C509.01 152.33 508.02 152.66 507 153C506.34 150.03 505.68 147.06 505 144Z" fill="#DC1F2E"/>
<path d="M509 105C511.31 105.33 513.62 105.66 516 106C516 106.66 516 107.32 516 108C515.01 108 514.02 108 513 108C512.67 108.66 512.34 109.32 512 110C511.67 109.01 511.34 108.02 511 107C510.34 107 509.68 107 509 107C509 106.34 509 105.68 509 105Z" fill="#DC1F2E"/>
<path d="M222 215C224 216 224 216 224 216L222 215Z" fill="black"/>
</svg>
