<?xml version="1.0" encoding="UTF-8"?>
<svg version="1.1" xmlns="http://www.w3.org/2000/svg" width="612" height="293">
<path d="M0 0 C1.05749451 0.00031723 1.05749451 0.00031723 2.13635254 0.00064087 C54.70031344 0.15582915 104.53294432 19.84682483 152.875 38.625 C154.0513501 39.07858887 155.2277002 39.53217773 156.43969727 39.99951172 C158.02802368 40.62623779 158.02802368 40.62623779 159.6484375 41.265625 C160.56802246 41.62688477 161.48760742 41.98814453 162.43505859 42.36035156 C164.5 43.375 164.5 43.375 165.5 45.375 C164.84 45.375 164.18 45.375 163.5 45.375 C163.5 46.695 163.5 48.015 163.5 49.375 C164.37398437 49.57536865 164.37398437 49.57536865 165.265625 49.77978516 C168.83342252 50.73021024 172.12455724 52.27018633 175.5 53.75 C176.2115625 54.05421875 176.923125 54.3584375 177.65625 54.671875 C179.62653516 55.5320368 181.56439487 56.43987718 183.5 57.375 C184.31726563 57.75785156 185.13453125 58.14070313 185.9765625 58.53515625 C188.60956969 61.71501878 187.99312585 65.46163261 187.875 69.4375 C187.87306641 70.67983398 187.87306641 70.67983398 187.87109375 71.94726562 C187.78106936 78.09393064 187.78106936 78.09393064 185.5 80.375 C185.82670254 82.66607381 185.82670254 82.66607381 186.5 85.375 C187.27731099 93.0876524 188.03039216 100.7230392 186.5 108.375 C184.83967772 110.03532228 182.86162723 109.50501814 180.58203125 109.5078125 C179.57462891 109.50910156 178.56722656 109.51039063 177.52929688 109.51171875 C176.46775391 109.50785156 175.40621094 109.50398438 174.3125 109.5 C173.27029297 109.50386719 172.22808594 109.50773437 171.15429688 109.51171875 C166.16343278 109.50537309 161.40205971 109.44176947 156.5 108.375 C156.5 108.045 156.5 107.715 156.5 107.375 C160.79 107.045 165.08 106.715 169.5 106.375 C169.809375 104.6734375 169.809375 104.6734375 170.125 102.9375 C171.22794398 97.9582674 172.829354 93.18627945 174.5 88.375 C174.76119629 87.60873291 175.02239258 86.84246582 175.29150391 86.05297852 C177.25879358 80.49560321 177.25879358 80.49560321 179.5 79.375 C179.335 78.42625 179.17 77.4775 179 76.5 C178.5 73.375 178.5 73.375 178.5 71.375 C166.13274499 75.9699485 159.46340055 81.61393704 152.88671875 93.22265625 C152.42910156 93.93292969 151.97148437 94.64320313 151.5 95.375 C150.84 95.375 150.18 95.375 149.5 95.375 C148.185773 91.12553208 146.87391693 86.87533589 145.5625 82.625 C145.00272461 80.81515625 145.00272461 80.81515625 144.43164062 78.96875 C143.89506836 77.22851562 143.89506836 77.22851562 143.34765625 75.453125 C143.01773682 74.38481445 142.68781738 73.31650391 142.34790039 72.21582031 C140.91695682 67.42156193 140.03937576 63.44186666 140.5 58.375 C141.9375 56.4375 141.9375 56.4375 144.5 55.375 C149.00070771 54.9373165 153.14283111 55.14707058 157.5 56.375 C157.5 55.715 157.5 55.055 157.5 54.375 C158.82 54.375 160.14 54.375 161.5 54.375 C160.68015625 54.10945313 159.8603125 53.84390625 159.015625 53.5703125 C157.93796875 53.21710938 156.8603125 52.86390625 155.75 52.5 C154.68265625 52.15195313 153.6153125 51.80390625 152.515625 51.4453125 C150.04450739 50.5682578 147.8026308 49.61573795 145.5 48.375 C145.5 47.385 145.5 46.395 145.5 45.375 C144.61675049 45.25060547 143.73350098 45.12621094 142.82348633 44.99804688 C139.73706409 44.4194419 137.21279126 43.60785271 134.32421875 42.40625 C133.34485352 42.00462646 132.36548828 41.60300293 131.35644531 41.18920898 C130.31069336 40.75552002 129.26494141 40.32183105 128.1875 39.875 C110.36900473 32.63444794 92.36224886 26.15720069 74 20.4375 C72.78924805 20.05972412 71.57849609 19.68194824 70.33105469 19.29272461 C64.09105226 17.3779997 57.8959609 15.68015869 51.5 14.375 C47.64225341 22.35563041 44.3328087 30.29024175 41.48046875 38.671875 C40.5 41.375 40.5 41.375 39.5 42.375 C56.33 44.85 56.33 44.85 73.5 47.375 C73.5 48.035 73.5 48.695 73.5 49.375 C41.17804306 51.32967558 9.30698314 50.11408827 -22.95663452 47.9241333 C-33.74085902 47.19373798 -44.5281526 46.51171612 -55.31640625 45.84375 C-56.92908103 45.74384703 -56.92908103 45.74384703 -58.5743351 45.64192581 C-79.10305225 44.38058613 -99.62771513 43.53123924 -120.1875 43 C-120.89613693 42.98122047 -121.60477386 42.96244095 -122.33488464 42.94309235 C-201.6509003 40.27991737 -201.6509003 40.27991737 -273.5 70.375 C-274.49 71.365 -274.49 71.365 -275.5 72.375 C-275.18237935 73.71216342 -274.84662075 75.04505904 -274.5 76.375 C-274.84545898 78.57324219 -274.84545898 78.57324219 -275.49609375 80.921875 C-275.72490234 81.76621094 -275.95371094 82.61054688 -276.18945312 83.48046875 C-276.43630859 84.35316406 -276.68316406 85.22585937 -276.9375 86.125 C-277.18048828 87.01316406 -277.42347656 87.90132813 -277.67382812 88.81640625 C-278.27396316 91.00513403 -278.88293345 93.19099686 -279.5 95.375 C-287.25 94.515625 -287.25 94.515625 -289.5 93.25 C-291.10438217 90.24178343 -290.78837632 87.7201653 -290.5 84.375 C-286.13609265 70.33851451 -266.46831952 59.65726985 -254.25 53.125 C-217.34911035 34.08442391 -177.64250107 34.3102083 -137.0625 34.25 C-135.52246811 34.24598175 -135.52246811 34.24598175 -133.95132446 34.24188232 C-112.54509982 34.19952384 -112.54509982 34.19952384 -102.5 35.375 C-102.5 34.715 -102.5 34.055 -102.5 33.375 C-61.73742439 11.04793381 -61.73742439 11.04793381 -40.3125 5.0625 C-39.01300415 4.69825928 -39.01300415 4.69825928 -37.68725586 4.32666016 C-25.24742073 1.0322197 -12.83886201 -0.03602995 0 0 Z M-94.5 32.375 C-94.5 33.035 -94.5 33.695 -94.5 34.375 C-96.15 34.375 -97.8 34.375 -99.5 34.375 C-99.5 34.705 -99.5 35.035 -99.5 35.375 C-98.7265625 35.36339844 -97.953125 35.35179688 -97.15625 35.33984375 C-96.1146875 35.33082031 -95.073125 35.32179688 -94 35.3125 C-92.9790625 35.30089844 -91.958125 35.28929688 -90.90625 35.27734375 C-87.5 35.375 -87.5 35.375 -84.03930664 35.84057617 C-78.53210846 36.54911632 -73.00833439 36.76675189 -67.46484375 37.0234375 C-65.04263988 37.1414514 -62.6204395 37.2595371 -60.19824219 37.37768555 C-58.2981842 37.46873062 -58.2981842 37.46873062 -56.35974121 37.56161499 C-49.72248412 37.88040205 -43.08571751 38.20881134 -36.44921875 38.54296875 C-35.44473379 38.59351504 -35.44473379 38.59351504 -34.41995621 38.64508247 C-18.88195816 39.43087012 -3.35809329 40.41418531 12.16430664 41.46044922 C13.08742142 41.52201706 14.01053619 41.5835849 14.96162415 41.64701843 C16.65716057 41.76049195 18.35256077 41.8760315 20.04777527 41.99421692 C20.79996841 42.04470688 21.55216156 42.09519684 22.32714844 42.1472168 C22.96859802 42.19146286 23.61004761 42.23570892 24.27093506 42.28129578 C27.34473387 42.41051046 30.42348646 42.375 33.5 42.375 C36.8 32.145 40.1 21.915 43.5 11.375 C30.4312681 8.74086017 30.4312681 8.74086017 17.3125 7.1875 C16.33692139 7.10927002 15.36134277 7.03104004 14.35620117 6.95043945 C-25.18168597 4.01209416 -59.19640938 15.03892786 -94.5 32.375 Z M149.5 61.375 C150.12031591 67.95034861 151.64897283 74.04192592 153.5 80.375 C154.49 80.375 155.48 80.375 156.5 80.375 C156.83 79.385 157.16 78.395 157.5 77.375 C158.81252882 76.66825371 160.15278717 76.01315344 161.5 75.375 C162.551875 74.59125 163.60375 73.8075 164.6875 73 C168.67248204 70.08458024 172.96161089 68.26060362 177.5 66.375 C178.16 66.045 178.82 65.715 179.5 65.375 C179.5 64.715 179.5 64.055 179.5 63.375 C180.49 63.045 181.48 62.715 182.5 62.375 C176.53680063 61.43959618 170.8011143 61.34696155 164.76953125 61.41015625 C160.94004084 61.36897893 157.21899443 60.99895834 153.42578125 60.49609375 C151.4157021 60.20778933 151.4157021 60.20778933 149.5 61.375 Z M-280.5 74.375 C-282.13676257 76.3350281 -282.13676257 76.3350281 -283.5 78.375 C-280.37802522 77.0660428 -280.37802522 77.0660428 -278.5 74.375 C-279.16 74.375 -279.82 74.375 -280.5 74.375 Z M-285.5 78.375 C-287.13676257 80.3350281 -287.13676257 80.3350281 -288.5 82.375 C-285.37802522 81.0660428 -285.37802522 81.0660428 -283.5 78.375 C-284.16 78.375 -284.82 78.375 -285.5 78.375 Z " fill="#FDFCFC" transform="translate(357.5,57.625)"/>
<path d="M0 0 C5.45769811 -0.11138159 10.61509359 0.08342019 16 1 C16 1.99 16 2.98 16 4 C16.58265625 4.1335791 17.1653125 4.2671582 17.765625 4.40478516 C21.33342252 5.35521024 24.62455724 6.89518633 28 8.375 C29.06734375 8.83132812 29.06734375 8.83132812 30.15625 9.296875 C32.12653516 10.1570368 34.06439487 11.06487718 36 12 C36.81726563 12.38285156 37.63453125 12.76570313 38.4765625 13.16015625 C41.10956969 16.34001878 40.49312585 20.08663261 40.375 24.0625 C40.37371094 24.89072266 40.37242187 25.71894531 40.37109375 26.57226562 C40.28106936 32.71893064 40.28106936 32.71893064 38 35 C38.32670254 37.29107381 38.32670254 37.29107381 39 40 C39.77731099 47.7126524 40.53039216 55.3480392 39 63 C37.33967772 64.66032228 35.36162723 64.13001814 33.08203125 64.1328125 C32.07462891 64.13410156 31.06722656 64.13539063 30.02929688 64.13671875 C28.96775391 64.13285156 27.90621094 64.12898438 26.8125 64.125 C25.77029297 64.12886719 24.72808594 64.13273437 23.65429688 64.13671875 C18.66343278 64.13037309 13.90205971 64.06676947 9 63 C9 62.67 9 62.34 9 62 C15.435 61.505 15.435 61.505 22 61 C22.309375 59.2984375 22.309375 59.2984375 22.625 57.5625 C23.72794398 52.5832674 25.329354 47.81127945 27 43 C27.26119629 42.23373291 27.52239258 41.46746582 27.79150391 40.67797852 C29.75879358 35.12060321 29.75879358 35.12060321 32 34 C31.7525 32.576875 31.7525 32.576875 31.5 31.125 C31 28 31 28 31 26 C18.63274499 30.5949485 11.96340055 36.23893704 5.38671875 47.84765625 C4.70029297 48.91306641 4.70029297 48.91306641 4 50 C3.34 50 2.68 50 2 50 C0.685773 45.75053208 -0.62608307 41.50033589 -1.9375 37.25 C-2.31068359 36.0434375 -2.68386719 34.836875 -3.06835938 33.59375 C-3.42607422 32.43359375 -3.78378906 31.2734375 -4.15234375 30.078125 C-4.48226318 29.00981445 -4.81218262 27.94150391 -5.15209961 26.84082031 C-6.58304318 22.04656193 -7.46062424 18.06686666 -7 13 C-5.5625 11.0625 -5.5625 11.0625 -3 10 C1.50070771 9.5623165 5.64283111 9.77207058 10 11 C10 10.34 10 9.68 10 9 C11.32 9 12.64 9 14 9 C13.16855469 8.73445313 12.33710937 8.46890625 11.48046875 8.1953125 C10.39378906 7.84210938 9.30710937 7.48890625 8.1875 7.125 C7.10855469 6.77695313 6.02960938 6.42890625 4.91796875 6.0703125 C2 5 2 5 -1 3 C-0.67 2.01 -0.34 1.02 0 0 Z M2 16 C2.62031591 22.57534861 4.14897283 28.66692592 6 35 C6.99 35 7.98 35 9 35 C9.33 34.01 9.66 33.02 10 32 C11.31252882 31.29325371 12.65278717 30.63815344 14 30 C15.051875 29.21625 16.10375 28.4325 17.1875 27.625 C21.17248204 24.70958024 25.46161089 22.88560362 30 21 C30.66 20.67 31.32 20.34 32 20 C32 19.34 32 18.68 32 18 C32.99 17.67 33.98 17.34 35 17 C29.03680063 16.06459618 23.3011143 15.97196155 17.26953125 16.03515625 C13.44004084 15.99397893 9.71899443 15.62395834 5.92578125 15.12109375 C3.9157021 14.83278933 3.9157021 14.83278933 2 16 Z " fill="#CF2834" transform="translate(505,103)"/>
<path d="M0 0 C1.48601302 -0.00101884 2.97202586 -0.00236013 4.45803833 -0.0039978 C8.39309823 -0.00666624 12.32811788 -0.00228339 16.26317215 0.00424194 C18.70245736 0.00782875 21.14173665 0.00943456 23.58102417 0.01049805 C50.81459835 0.02524776 78.03018354 0.363353 105.25390625 1.1328125 C105.25390625 1.4628125 105.25390625 1.7928125 105.25390625 2.1328125 C100.26087105 2.36097893 95.26781687 2.58872579 90.27474976 2.81619263 C88.38202604 2.90244699 86.48930551 2.98877133 84.59658813 3.07516479 C71.79455872 3.65931369 58.99215467 4.23435039 46.18926048 4.79918861 C41.68362591 4.99812465 37.17802904 5.19791352 32.67242908 5.39763165 C28.22586508 5.59460466 23.77923868 5.79008953 19.3325634 5.98453331 C16.5023368 6.10865534 13.6721745 6.23420084 10.84202576 6.36008453 C8.90950507 6.44561691 6.97690965 6.5294558 5.04431152 6.61322021 C1.44676841 6.77394454 -2.14963317 6.94951566 -5.74609375 7.1328125 C-6.40298061 7.16415661 -7.05986748 7.19550072 -7.73666 7.22779465 C-9.75235042 7.32645015 -11.76707631 7.43708071 -13.78198242 7.55053711 C-14.97305099 7.61397812 -16.16411957 7.67741913 -17.39128113 7.74278259 C-22.90506788 8.38381444 -26.64797406 9.72802964 -30.68359375 13.5078125 C-36.47512999 18.25806226 -45.19314282 21.1328125 -52.74609375 21.1328125 C-48.80944048 12.59708835 -41.65426515 6.9026012 -33.74609375 2.1328125 C-23.53911179 -1.26951482 -10.61396734 -0.01688782 0 0 Z " fill="#FDFDFD" transform="translate(232.74609375,145.8671875)"/>
<path d="M0 0 C5.135625 -0.12375 10.27125 -0.2475 15.5625 -0.375 C17.16939697 -0.42962402 18.77629395 -0.48424805 20.43188477 -0.54052734 C32.21890405 -0.6783179 32.21890405 -0.6783179 36.484375 2.66796875 C39.0588768 5.52955984 39.87826126 7.77961943 39.6875 11.6875 C39.67074219 12.61949219 39.65398437 13.55148438 39.63671875 14.51171875 C38.83080608 17.66120569 37.66797512 18.2630631 35 20 C34.34 20.99 33.68 21.98 33 23 C33.598125 23.7425 34.19625 24.485 34.8125 25.25 C35.534375 26.1575 36.25625 27.065 37 28 C37.5775 28.70125 38.155 29.4025 38.75 30.125 C40 32 40 32 40 35 C37.3046875 35.3046875 37.3046875 35.3046875 34 35 C31.4453125 32.8828125 31.4453125 32.8828125 29.125 30.125 C28.34382813 29.22007812 27.56265625 28.31515625 26.7578125 27.3828125 C25 25 25 25 25 23 C19.06 23.33 13.12 23.66 7 24 C7.020625 25.629375 7.04125 27.25875 7.0625 28.9375 C7.08386068 30.62499341 7.07205511 32.31391034 7 34 C6.505 34.495 6.505 34.495 6 35 C4.02 35 2.04 35 0 35 C0 23.45 0 11.9 0 0 Z M7 5 C7 8.96 7 12.92 7 17 C10.3955402 17.27620663 13.78868442 17.52177144 17.1875 17.75 C18.14720703 17.83121094 19.10691406 17.91242188 20.09570312 17.99609375 C25.8806863 18.38087178 25.8806863 18.38087178 31.13671875 16.171875 C33.16397926 14.13672716 33.16397926 14.13672716 33.625 11.5 C33.167265 8.86508253 33.167265 8.86508253 31.13671875 6.859375 C26.53360536 4.13075486 22.42938409 4.5669389 17.1875 4.75 C16.20845703 4.76804688 15.22941406 4.78609375 14.22070312 4.8046875 C11.81337997 4.85165966 9.40656257 4.92339854 7 5 Z " fill="#FDFDFD" transform="translate(81,190)"/>
<path d="M0 0 C4.970625 -0.12375 9.94125 -0.2475 15.0625 -0.375 C16.61718994 -0.42962402 18.17187988 -0.48424805 19.77368164 -0.54052734 C31.1796482 -0.67822513 31.1796482 -0.67822513 35.43359375 2.8984375 C38.01544327 5.66840222 38.94022618 7.47199795 39.375 11.3125 C38.90439907 15.94007584 37.45581349 17.03787415 34 20 C33.34 20.99 32.68 21.98 32 23 C32.5775 23.69867188 33.155 24.39734375 33.75 25.1171875 C34.4925 26.02726562 35.235 26.93734375 36 27.875 C36.7425 28.77992188 37.485 29.68484375 38.25 30.6171875 C40 33 40 33 40 35 C36.73828125 35.33984375 36.73828125 35.33984375 33 35 C30.98046875 32.62890625 30.98046875 32.62890625 29.1875 29.5625 C26.23211039 25.51449103 26.23211039 25.51449103 21.83789062 23.38085938 C16.56260752 22.65161652 11.3087009 22.75374958 6 23 C6 26.96 6 30.92 6 35 C4.02 35 2.04 35 0 35 C0 23.45 0 11.9 0 0 Z M6 5 C6 8.96 6 12.92 6 17 C9.99749805 18.33249935 13.68801222 18.26257566 17.875 18.3125 C18.67808594 18.34150391 19.48117187 18.37050781 20.30859375 18.40039062 C24.38566967 18.44404959 26.48113096 18.3185335 30.03515625 16.13671875 C32.18288529 14.15762546 32.18288529 14.15762546 32.5625 11.5 C31.77319134 7.99196152 30.98424713 7.07979741 28 5 C24.24091339 4.49628009 20.53394858 4.6251489 16.75 4.75 C15.203125 4.77707031 15.203125 4.77707031 13.625 4.8046875 C11.0829355 4.85176277 8.54134933 4.92350454 6 5 Z " fill="#FDFDFD" transform="translate(413,190)"/>
<path d="M0 0 C10 0 10 0 12.5234375 1.84375 C13.13445312 2.7203125 13.74546875 3.596875 14.375 4.5 C15.09429687 5.48742187 15.81359375 6.47484375 16.5546875 7.4921875 C16.9372168 8.04487305 17.31974609 8.59755859 17.71386719 9.16699219 C19.68860298 11.98140303 21.77809126 14.70708537 23.85400391 17.44726562 C25.89624899 20.14925705 27.91342634 22.86943026 29.92773438 25.59228516 C30.93427519 26.97895592 30.93427519 26.97895592 32 28 C32.33 18.76 32.66 9.52 33 0 C34.98 0 36.96 0 39 0 C39 11.55 39 23.1 39 35 C29 35 29 35 26.22265625 32.90234375 C25.50980469 31.92394531 24.79695313 30.94554687 24.0625 29.9375 C23.66627441 29.4125293 23.27004883 28.88755859 22.86181641 28.34667969 C22.00708536 27.20460222 21.16736421 26.05117036 20.34130859 24.88818359 C18.89854464 22.85717951 17.4161479 20.85958204 15.92578125 18.86328125 C13.24994235 15.26596702 10.61624294 11.6408552 8 8 C6.22509454 9.77490546 6.76500027 12.37784902 6.68359375 14.78515625 C6.64169922 15.95498047 6.59980469 17.12480469 6.55664062 18.33007812 C6.51732422 19.56177734 6.47800781 20.79347656 6.4375 22.0625 C6.37272461 23.91584961 6.37272461 23.91584961 6.30664062 25.80664062 C6.20015802 28.87097335 6.09814576 31.93539073 6 35 C4.02 35 2.04 35 0 35 C0 23.45 0 11.9 0 0 Z M6 5 C7 7 7 7 7 7 Z " fill="#FDFDFD" transform="translate(192,190)"/>
<path d="M0 0 C1.07636719 -0.02707031 2.15273438 -0.05414063 3.26171875 -0.08203125 C10.02426678 -0.0243725 14.744299 1.11921014 19.86083984 5.69091797 C22.86181118 9.68953126 22.77148329 13.53069892 22.5625 18.375 C22.58892578 19.28636719 22.61535156 20.19773438 22.64257812 21.13671875 C22.56002404 26.11149946 21.77362494 29.33564597 18.27734375 32.9765625 C12.68685979 37.18267085 6.74680982 36.90417084 0 36.75 C-1.18464844 36.77707031 -2.36929687 36.80414063 -3.58984375 36.83203125 C-9.26502662 36.78774331 -13.65017615 36.45790122 -18.27734375 32.9765625 C-21.77362494 29.33564597 -22.56002404 26.11149946 -22.64257812 21.13671875 C-22.61615234 20.22535156 -22.58972656 19.31398437 -22.5625 18.375 C-22.60181641 17.46363281 -22.64113281 16.55226562 -22.68164062 15.61328125 C-22.64993498 11.61837009 -22.29210292 8.93042936 -19.86083984 5.69091797 C-13.78489895 0.26197146 -7.88476225 -0.19829941 0 0 Z M-15.5 10.875 C-16.44518484 14.49093682 -16.44518484 14.49093682 -16.25 18.375 C-16.26546875 19.6640625 -16.2809375 20.953125 -16.296875 22.28125 C-15.46909796 26.01436215 -14.53560359 27.7387826 -11.40332031 29.98144531 C-7.70626959 31.71710535 -4.01560647 31.59367667 0 31.5 C0.82886719 31.51933594 1.65773438 31.53867188 2.51171875 31.55859375 C6.58178728 31.52624026 9.6817277 31.21407698 13.046875 28.8046875 C16.13480164 25.11687702 16.30720039 23.14169881 16.25 18.375 C16.27320313 16.44140625 16.27320313 16.44140625 16.296875 14.46875 C15.46909796 10.73563785 14.53560359 9.0112174 11.40332031 6.76855469 C7.70626959 5.03289465 4.01560647 5.15632333 0 5.25 C-1.24330078 5.22099609 -1.24330078 5.22099609 -2.51171875 5.19140625 C-8.50134329 5.23901853 -11.60002951 6.21739193 -15.5 10.875 Z " fill="#FDFDFD" transform="translate(374.5,189.125)"/>
<path d="M0 0 C1.41792958 0.02510613 2.83590179 0.04791525 4.25390625 0.06835938 C7.71182988 0.12319176 11.16814188 0.20933389 14.625 0.3125 C14.625 1.9625 14.625 3.6125 14.625 5.3125 C13.41384521 5.342229 13.41384521 5.342229 12.17822266 5.37255859 C8.53514125 5.46755899 4.89265314 5.57733912 1.25 5.6875 C-0.02101563 5.7184375 -1.29203125 5.749375 -2.6015625 5.78125 C-3.81328125 5.81992188 -5.025 5.85859375 -6.2734375 5.8984375 C-7.95445557 5.94556885 -7.95445557 5.94556885 -9.66943359 5.99365234 C-12.52210412 6.04661203 -12.52210412 6.04661203 -14.375 8.3125 C-14.08516731 11.61933466 -14.08516731 11.61933466 -12.375 14.3125 C-10.73786886 14.40934279 -9.09700157 14.44450945 -7.45703125 14.453125 C-6.44962891 14.47246094 -5.44222656 14.49179688 -4.40429688 14.51171875 C-2.27948343 14.54526165 -0.15437344 14.56377783 1.97070312 14.56640625 C10.67371291 14.77665061 10.67371291 14.77665061 14.31640625 17.546875 C16.74412751 20.45521113 17.44486452 21.58639209 17.375 25.3125 C17.39046875 26.1375 17.4059375 26.9625 17.421875 27.8125 C16.26064255 31.4555822 13.82292637 33.40796572 10.625 35.3125 C7.00634766 35.88012695 7.00634766 35.88012695 3.0390625 35.80078125 C2.33727875 35.79370651 1.635495 35.78663177 0.91244507 35.77934265 C-1.30949591 35.75155097 -3.52883265 35.68885434 -5.75 35.625 C-7.26428628 35.59989686 -8.77861243 35.57708722 -10.29296875 35.55664062 C-13.9878126 35.50177846 -17.68115175 35.41561808 -21.375 35.3125 C-21.375 33.6625 -21.375 32.0125 -21.375 30.3125 C-20.50697754 30.28744385 -19.63895508 30.2623877 -18.74462891 30.23657227 C-15.52786837 30.14150516 -12.31127151 30.04226797 -9.09472656 29.94018555 C-7.7018741 29.89684154 -6.30896869 29.85516604 -4.91601562 29.81518555 C-2.91523349 29.75747068 -0.91464141 29.69328131 1.0859375 29.62890625 C2.89263916 29.57391968 2.89263916 29.57391968 4.73583984 29.51782227 C7.56496367 29.50197013 7.56496367 29.50197013 9.625 28.3125 C10.28272428 25.28315509 10.28272428 25.28315509 10.625 22.3125 C7.63865027 21.31705009 5.62994151 21.18844513 2.51171875 21.171875 C1.51076172 21.15253906 0.50980469 21.13320312 -0.52148438 21.11328125 C-2.62025191 21.07961811 -4.71932352 21.06121263 -6.81835938 21.05859375 C-15.4127329 20.84910934 -15.4127329 20.84910934 -19.05859375 18.078125 C-21.49469004 15.16959857 -22.19495416 14.0433885 -22.125 10.3125 C-22.14046875 9.4875 -22.1559375 8.6625 -22.171875 7.8125 C-21.25193829 4.92642406 -20.07455322 3.11683149 -17.6484375 1.27197266 C-12.21778856 -1.01995715 -5.8034914 -0.17837221 0 0 Z " fill="#FDFDFD" transform="translate(268.375,189.6875)"/>
<path d="M0 0 C2.64 0 5.28 0 8 0 C8 4.95 8 9.9 8 15 C12.15183943 15.86754854 14.00824571 16.20515384 18 15 C21.17887277 12.38834707 23.78265603 9.26377682 26.35620117 6.06787109 C30.37243236 1.17424401 30.37243236 1.17424401 34.390625 0.05859375 C35.68226563 0.02958984 35.68226563 0.02958984 37 0 C37 4.48149175 36.7194665 4.7691726 33.8125 7.8125 C30.53066242 11.36782404 27.73978548 15.01485748 25 19 C25.75925781 19.74765625 26.51851562 20.4953125 27.30078125 21.265625 C28.30482136 22.26028156 29.30872017 23.25508077 30.3125 24.25 C30.81201172 24.74113281 31.31152344 25.23226562 31.82617188 25.73828125 C37.369038 31.24443965 37.369038 31.24443965 39 34 C38.67 34.99 38.34 35.98 38 37 C35.91015625 37.43359375 35.91015625 37.43359375 33 37 C30.55387207 34.92971959 28.5411795 32.47332022 26.4375 30.0625 C22.01229744 25.26430091 18.95790235 22.08701119 12.125 21.625 C9.26957476 21.67526667 9.26957476 21.67526667 7 22 C7.01160156 22.99902344 7.02320313 23.99804688 7.03515625 25.02734375 C7.04417969 26.31769531 7.05320312 27.60804688 7.0625 28.9375 C7.07410156 30.22527344 7.08570313 31.51304687 7.09765625 32.83984375 C7 36 7 36 6 37 C4.35 37 2.7 37 1 37 C0.67 24.79 0.34 12.58 0 0 Z " fill="#C32633" transform="translate(545,189)"/>
<path d="M0 0 C7.1775 -0.185625 7.1775 -0.185625 14.5 -0.375 C16.74006836 -0.45693604 16.74006836 -0.45693604 19.02539062 -0.54052734 C26.0228263 -0.62804234 31.37513615 -0.61928999 36.69335938 4.30224609 C38.68514817 6.89023176 39.06760162 8.75512202 39 12 C39.020625 12.99 39.04125 13.98 39.0625 15 C37.68332055 18.89415374 35.9077623 20.53783221 32.53125 22.84863281 C27.68084668 25.05489265 22.72463877 24.61873315 17.5 24.375 C16.39140625 24.34792969 15.2828125 24.32085937 14.140625 24.29296875 C11.42623426 24.22276899 8.71285484 24.11516837 6 24 C6 27.63 6 31.26 6 35 C4.02 35 2.04 35 0 35 C0 23.45 0 11.9 0 0 Z M6 5 C6 9.62 6 14.24 6 19 C9.39668836 19.1081174 12.78992439 19.18737188 16.1875 19.25 C17.14720703 19.28351563 18.10691406 19.31703125 19.09570312 19.3515625 C23.53985064 19.41307319 26.23281746 19.44712507 30.13671875 17.171875 C32.23528124 15.07927976 32.23528124 15.07927976 32.625 12 C32.23528124 8.92072024 32.23528124 8.92072024 30.13671875 6.828125 C25.52987849 4.14319194 21.41365141 4.56748833 16.1875 4.75 C15.20845703 4.76804688 14.22941406 4.78609375 13.22070312 4.8046875 C10.81337997 4.85165966 8.40656257 4.92339854 6 5 Z " fill="#FDFDFD" transform="translate(301,190)"/>
<path d="M0 0 C3.11418941 -0.46617314 5.90048856 -0.62733642 9 0 C11.42460881 2.13841797 12.65415994 4.74726112 14.0625 7.625 C14.89441699 9.18365474 15.72645008 10.74224752 16.55859375 12.30078125 C16.96319824 13.08791504 17.36780273 13.87504883 17.78466797 14.68603516 C18.93153665 16.86964731 20.14412788 18.98919255 21.41015625 21.10546875 C21.78454834 21.73308105 22.15894043 22.36069336 22.54467773 23.00732422 C22.90118408 23.60303223 23.25769043 24.19874023 23.625 24.8125 C27 30.50197628 27 30.50197628 27 35 C25.02 35 23.04 35 21 35 C19.68 32.36 18.36 29.72 17 27 C8.75 26.67 0.5 26.34 -8 26 C-8.66 27.98 -9.32 29.96 -10 32 C-10.66 32.99 -11.32 33.98 -12 35 C-15.625 35.1875 -15.625 35.1875 -19 35 C-17.69647881 31.5610526 -16.19559532 28.41684413 -14.35546875 25.234375 C-13.84306641 24.34363281 -13.33066406 23.45289063 -12.80273438 22.53515625 C-12.26970703 21.61605469 -11.73667969 20.69695312 -11.1875 19.75 C-10.13879753 17.93259473 -9.09061564 16.11488896 -8.04296875 14.296875 C-7.53556152 13.41708984 -7.0281543 12.53730469 -6.50537109 11.63085938 C-4.29897031 7.77484659 -2.14334306 3.89134114 0 0 Z M4 5 C2.66141476 7.28874173 1.32898986 9.58069656 0 11.875 C-0.3815625 12.52597656 -0.763125 13.17695313 -1.15625 13.84765625 C-3.27551156 17.20350201 -3.27551156 17.20350201 -4 21 C1.94 21 7.88 21 14 21 C12.72125 18.545625 11.4425 16.09125 10.125 13.5625 C9.52582764 12.4014978 9.52582764 12.4014978 8.91455078 11.21704102 C7.14247225 7.47187623 7.14247225 7.47187623 4 5 Z " fill="#FDFDFD" transform="translate(151,190)"/>
<path d="M0 0 C0.22162329 1.62324086 0.42689803 3.248721 0.625 4.875 C0.79902344 6.23238281 0.79902344 6.23238281 0.9765625 7.6171875 C0.98429688 8.40351563 0.99203125 9.18984375 1 10 C0.34 10.66 -0.32 11.32 -1 12 C-0.67329746 14.29107381 -0.67329746 14.29107381 0 17 C0.77731099 24.7126524 1.53039216 32.3480392 0 40 C-1.66032228 41.66032228 -3.63837277 41.13001814 -5.91796875 41.1328125 C-7.42907227 41.13474609 -7.42907227 41.13474609 -8.97070312 41.13671875 C-10.03224609 41.13285156 -11.09378906 41.12898438 -12.1875 41.125 C-13.22970703 41.12886719 -14.27191406 41.13273437 -15.34570312 41.13671875 C-20.33656722 41.13037309 -25.09794029 41.06676947 -30 40 C-30 39.67 -30 39.34 -30 39 C-23.565 38.505 -23.565 38.505 -17 38 C-16.79375 36.865625 -16.5875 35.73125 -16.375 34.5625 C-15.27205602 29.5832674 -13.670646 24.81127945 -12 20 C-11.73880371 19.23373291 -11.47760742 18.46746582 -11.20849609 17.67797852 C-9.24120642 12.12060321 -9.24120642 12.12060321 -7 11 C-7.185625 10.0925 -7.37125 9.185 -7.5625 8.25 C-7.95694931 5.3198051 -8.09847014 3.69624489 -7 1 C-4.53721199 -0.231394 -2.7204945 -0.07159196 0 0 Z " fill="#FBF9FA" transform="translate(544,126)"/>
<path d="M0 0 C0 1.65 0 3.3 0 5 C-3.20975655 6.60487828 -6.63346002 5.82448599 -10.125 5.5625 C-12.72375 5.376875 -15.3225 5.19125 -18 5 C-18 14.9 -18 24.8 -18 35 C-19.98 35 -21.96 35 -24 35 C-24.16755938 31.04924621 -24.3281242 27.09827679 -24.48217773 23.14697266 C-24.56187238 21.14079929 -24.64712518 19.13484924 -24.73242188 17.12890625 C-24.78076172 15.87207031 -24.82910156 14.61523438 -24.87890625 13.3203125 C-24.9260376 12.15773926 -24.97316895 10.99516602 -25.02172852 9.79736328 C-25 7 -25 7 -24 5 C-29.94 5 -35.88 5 -42 5 C-42 3.35 -42 1.7 -42 0 C-36.66164927 -0.1678224 -31.32314765 -0.32836013 -25.984375 -0.48217773 C-24.16855997 -0.5355173 -22.35280207 -0.59084022 -20.53710938 -0.64819336 C-17.92590653 -0.73032912 -15.31458074 -0.80530897 -12.703125 -0.87890625 C-11.48728729 -0.91945885 -11.48728729 -0.91945885 -10.24688721 -0.96083069 C-6.63254359 -1.05634176 -3.47509268 -0.98815351 0 0 Z " fill="#FDFDFD" transform="translate(505,190)"/>
<path d="M0 0 C13.53 0 27.06 0 41 0 C41.495 2.475 41.495 2.475 42 5 C36.06 5 30.12 5 24 5 C24 14.9 24 24.8 24 35 C21.03 35.495 21.03 35.495 18 36 C16.55176489 33.10352978 16.99480366 30.68835083 17.12109375 27.4609375 C17.16943359 26.15898437 17.21777344 24.85703125 17.26757812 23.515625 C17.32410394 22.13541196 17.38074608 20.75520368 17.4375 19.375 C17.49072293 17.98699781 17.54346332 16.59897703 17.59570312 15.2109375 C17.72571163 11.80707859 17.86068883 8.40348883 18 5 C17.01 5.33 16.02 5.66 15 6 C12.4191074 5.91255992 9.88308522 5.77131505 7.3125 5.5625 C6.2596582 5.48418945 6.2596582 5.48418945 5.18554688 5.40429688 C3.45661946 5.27492135 1.72824645 5.13817469 0 5 C0 3.35 0 1.7 0 0 Z " fill="#FEFEFE" transform="translate(27,190)"/>
<path d="M0 0 C0.66 0.66 1.32 1.32 2 2 C4.58354218 2.16687448 4.58354218 2.16687448 7 2 C6.67 2.66 6.34 3.32 6 4 C5.34 4 4.68 4 4 4 C4.30737661 6.47990255 4.62064083 8.95880735 4.9375 11.4375 C5.02451172 12.14455078 5.11152344 12.85160156 5.20117188 13.58007812 C5.38216191 17.08817968 5.38216191 17.08817968 7 20 C7.04063832 21.66617115 7.042721 23.33388095 7 25 C11.88243274 24.58150577 13.74262773 22.50793937 17 19 C20.41406566 15.81353872 23.39851366 15.44245061 28 15 C27.67 15.66 27.34 16.32 27 17 C26.01 17 25.02 17 24 17 C24 17.99 24 18.98 24 20 C23.175 20.495 22.35 20.99 21.5 21.5 C15.59262761 25.1061632 11.73065171 31.94516927 8.38671875 37.84765625 C7.70029297 38.91306641 7.70029297 38.91306641 7 40 C6.34 40 5.68 40 5 40 C3.685773 35.75053208 2.37391693 31.50033589 1.0625 27.25 C0.68931641 26.0434375 0.31613281 24.836875 -0.06835938 23.59375 C-0.42607422 22.43359375 -0.78378906 21.2734375 -1.15234375 20.078125 C-1.48226318 19.00981445 -1.81218262 17.94150391 -2.15209961 16.84082031 C-3.58304318 12.04656193 -4.46062424 8.06686666 -4 3 C-2 1.0625 -2 1.0625 0 0 Z " fill="#D02633" transform="translate(502,113)"/>
<path d="M0 0 C2.31 0 4.62 0 7 0 C7 0.66 7 1.32 7 2 C7.99 2 8.98 2 10 2 C10.33 2.66 10.66 3.32 11 4 C13.34907875 4.68931344 13.34907875 4.68931344 16.0625 5.125 C16.98160156 5.29257813 17.90070312 5.46015625 18.84765625 5.6328125 C19.91306641 5.81457031 19.91306641 5.81457031 21 6 C13.14530438 10.7770144 0.74966839 7.88284942 -8 7 C-7.71125 8.03640625 -7.4225 9.0728125 -7.125 10.140625 C-6.74973453 11.51034396 -6.37474921 12.8801397 -6 14.25 C-5.80921875 14.93191406 -5.6184375 15.61382812 -5.421875 16.31640625 C-4.50042956 19.70600912 -4 22.45778976 -4 26 C-4.66 26 -5.32 26 -6 26 C-7.77401632 21.37025009 -8.39641621 17.03955157 -8.625 12.125 C-8.66367187 11.43664062 -8.70234375 10.74828125 -8.7421875 10.0390625 C-8.83548166 8.35976754 -8.91878238 6.67992233 -9 5 C-8.34 4.67 -7.68 4.34 -7 4 C-8.65 4 -10.3 4 -12 4 C-12 3.01 -12 2.02 -12 1 C-3.42857143 0.85714286 -3.42857143 0.85714286 0 2 C0 1.34 0 0.68 0 0 Z " fill="#BE232F" transform="translate(515,112)"/>
<path d="M0 0 C0.66 0.66 1.32 1.32 2 2 C4.58354218 2.16687448 4.58354218 2.16687448 7 2 C6.67 2.66 6.34 3.32 6 4 C5.34 4 4.68 4 4 4 C4.31044024 6.39611639 4.62328358 8.79187835 4.9375 11.1875 C5.02451172 11.86103516 5.11152344 12.53457031 5.20117188 13.22851562 C5.67825477 16.85081166 6.23012035 20.42803585 7 24 C6.34 24 5.68 24 5 24 C5 24.66 5 25.32 5 26 C4.34 26 3.68 26 3 26 C1.50178941 22.62902617 1 20.79557881 1 17 C0.01 17 -0.98 17 -2 17 C-3.56640979 12.20287002 -4.58956501 8.10956338 -4 3 C-2 1.0625 -2 1.0625 0 0 Z " fill="#D91F2D" transform="translate(502,113)"/>
<path d="M0 0 C0.66 0.33 1.32 0.66 2 1 C2 3.64 2 6.28 2 9 C-0.64 9.33 -3.28 9.66 -6 10 C-6 10.66 -6 11.32 -6 12 C-11.445 13.485 -11.445 13.485 -17 15 C-17 13 -17 13 -16 12 C-16.66 11.67 -17.32 11.34 -18 11 C-14.14522751 8.43015167 -10.47959418 7.14185734 -6 6 C-6 5.34 -6 4.68 -6 4 C-4.68 4 -3.36 4 -2 4 C-2.33 5.32 -2.66 6.64 -3 8 C-1.68 8 -0.36 8 1 8 C0.67 5.36 0.34 2.72 0 0 Z " fill="#C23F48" transform="translate(543,117)"/>
<path d="M0 0 C0.66 0 1.32 0 2 0 C3.13480527 3.60993172 3.10015767 6.9842327 3.0625 10.75 C3.05347656 11.92046875 3.04445313 13.0909375 3.03515625 14.296875 C3.02355469 15.18890625 3.01195312 16.0809375 3 17 C1.68 17 0.36 17 -1 17 C-1.02684679 14.35409986 -1.04676357 11.70846904 -1.0625 9.0625 C-1.07087891 8.30775391 -1.07925781 7.55300781 -1.08789062 6.77539062 C-1.09652441 4.85005687 -1.05224333 2.92464419 -1 1 C-0.67 0.67 -0.34 0.34 0 0 Z " fill="#DA1E2F" transform="translate(548,208)"/>
<path d="M0 0 C2.31 0 4.62 0 7 0 C7 0.66 7 1.32 7 2 C7.99 2 8.98 2 10 2 C10.33 2.66 10.66 3.32 11 4 C13.34907875 4.68931344 13.34907875 4.68931344 16.0625 5.125 C16.98160156 5.29257813 17.90070312 5.46015625 18.84765625 5.6328125 C19.91306641 5.81457031 19.91306641 5.81457031 21 6 C17.47873148 8.17490115 14.59357533 8.26877787 10.5 8.25 C9.3759375 8.25515625 8.251875 8.2603125 7.09375 8.265625 C4.14958257 8.01284295 2.48304495 7.53364541 0 6 C1.134375 5.855625 2.26875 5.71125 3.4375 5.5625 C6.80777201 5.38828522 6.80777201 5.38828522 8 4 C5.36 3.01 2.72 2.02 0 1 C0 0.67 0 0.34 0 0 Z " fill="#A13238" transform="translate(515,112)"/>
<path d="M0 0 C5.45769811 -0.11138159 10.61509359 0.08342019 16 1 C16 1.99 16 2.98 16 4 C17.32 4.33 18.64 4.66 20 5 C19.01 5.33 18.02 5.66 17 6 C16.01 5.34 15.02 4.68 14 4 C12.28555111 3.56261304 10.55332216 3.19151312 8.8125 2.875 C7.91144531 2.70742187 7.01039063 2.53984375 6.08203125 2.3671875 C5.39496094 2.24601562 4.70789063 2.12484375 4 2 C4 2.66 4 3.32 4 4 C4.66 4 5.32 4 6 4 C6 4.66 6 5.32 6 6 C4.02 5.34 2.04 4.68 0 4 C0 2.68 0 1.36 0 0 Z " fill="#BE484F" transform="translate(505,103)"/>
<path d="M0 0 C0.66 0.66 1.32 1.32 2 2 C4.58354218 2.16687448 4.58354218 2.16687448 7 2 C6.525625 2.350625 6.05125 2.70125 5.5625 3.0625 C3.32126175 5.84163543 3.32882342 8.5144717 3 12 C1.68 12.33 0.36 12.66 -1 13 C-1.2236337 11.58566794 -1.42826476 10.16832382 -1.625 8.75 C-1.74101562 7.96109375 -1.85703125 7.1721875 -1.9765625 6.359375 C-2.00319395 3.67847541 -1.36592084 2.27305911 0 0 Z " fill="#DC1D2D" transform="translate(502,113)"/>
<path d="M0 0 C1.32 0 2.64 0 4 0 C4.08114106 1.77007714 4.13925505 3.54122098 4.1875 5.3125 C4.22230469 6.29863281 4.25710938 7.28476563 4.29296875 8.30078125 C4 11 4 11 2.48828125 12.85546875 C1.99714844 13.23316406 1.50601563 13.61085937 1 14 C1 12.02 1 10.04 1 8 C0.34 8 -0.32 8 -1 8 C-0.67 5.36 -0.34 2.72 0 0 Z " fill="#D91F30" transform="translate(547,191)"/>
<path d="M0 0 C0 1.65 0 3.3 0 5 C-1.95979427 4.71831703 -3.91782378 4.42433283 -5.875 4.125 C-7.51082031 3.88136719 -7.51082031 3.88136719 -9.1796875 3.6328125 C-12 3 -12 3 -14 1 C-9.27616037 0.34843591 -4.78025483 -0.11950637 0 0 Z " fill="#D81F2F" transform="translate(567,206)"/>
<path d="M0 0 C2.75 0.25 2.75 0.25 5 1 C3.64978174 5.41889613 1.73884332 7.34345343 -2 10 C-2 8.35 -2 6.7 -2 5 C-0.68 5 0.64 5 2 5 C2 4.01 2 3.02 2 2 C0.02 2.66 -1.96 3.32 -4 4 C-2.3125 1.9375 -2.3125 1.9375 0 0 Z " fill="#B02C3C" transform="translate(578,189)"/>
<path d="M0 0 C2.64 0 5.28 0 8 0 C7.67 4.95 7.34 9.9 7 15 C6.67 15 6.34 15 6 15 C6 10.71 6 6.42 6 2 C4.68 2 3.36 2 2 2 C2 3.65 2 5.3 2 7 C0.5393715 4.35261084 0 3.10551666 0 0 Z " fill="#AD353F" transform="translate(545,189)"/>
<path d="M0 0 C0.99 0.33 1.98 0.66 3 1 C2.34 1 1.68 1 1 1 C1.28875 2.03640625 1.5775 3.0728125 1.875 4.140625 C2.25026547 5.51034396 2.62525079 6.8801397 3 8.25 C3.28617187 9.27287109 3.28617187 9.27287109 3.578125 10.31640625 C4.49957044 13.70600912 5 16.45778976 5 20 C4.34 20 3.68 20 3 20 C1.28878246 15.47849025 0.64776388 11.44382847 0.375 6.625 C0.30023438 5.37976563 0.22546875 4.13453125 0.1484375 2.8515625 C0.09945313 1.91054687 0.05046875 0.96953125 0 0 Z " fill="#B7313C" transform="translate(506,118)"/>
<path d="M0 0 C0.66 0.33 1.32 0.66 2 1 C1.835 1.61875 1.67 2.2375 1.5 2.875 C0.79924683 7.25470729 0.92265749 11.57428989 1 16 C-2.11571434 11.3264285 -2.3122509 7.6205162 -2 2 C-1.34 1.34 -0.68 0.68 0 0 Z " fill="#C7353B" transform="translate(500,114)"/>
<path d="M0 0 C2.6875 0.3125 2.6875 0.3125 5 1 C4.01 1.33 3.02 1.66 2 2 C2.66 3.98 3.32 5.96 4 8 C1.11424181 7.60196439 0.17810487 7.20990931 -1.75 4.9375 C-2.1625 4.298125 -2.575 3.65875 -3 3 C-1.8125 1.4375 -1.8125 1.4375 0 0 Z " fill="#C22837" transform="translate(525,109)"/>
<path d="M0 0 C0.66 0 1.32 0 2 0 C2 1.65 2 3.3 2 5 C3.32 4.67 4.64 4.34 6 4 C5.6875 5.9375 5.6875 5.9375 5 8 C4.01 8.33 3.02 8.66 2 9 C1.34 6.03 0.68 3.06 0 0 Z " fill="#B12F3A" transform="translate(505,144)"/>
<path d="M0 0 C2.31 0.33 4.62 0.66 7 1 C7 1.66 7 2.32 7 3 C6.01 3 5.02 3 4 3 C3.67 3.66 3.34 4.32 3 5 C2.67 4.01 2.34 3.02 2 2 C1.34 2 0.68 2 0 2 C0 1.34 0 0.68 0 0 Z " fill="#D41E2D" transform="translate(509,105)"/>
<path d="" fill="#808080" transform="translate(0,0)"/>
<path d="M0 0 C2 1 2 1 2 1 Z " fill="#FFFFFF" transform="translate(222,215)"/>
<path d="" fill="#000000" transform="translate(0,0)"/>
<path d="" fill="#000000" transform="translate(0,0)"/>
<path d="" fill="#000000" transform="translate(0,0)"/>
<path d="" fill="#000000" transform="translate(0,0)"/>
<path d="" fill="#000000" transform="translate(0,0)"/>
<path d="" fill="#000000" transform="translate(0,0)"/>
<path d="" fill="#000000" transform="translate(0,0)"/>
<path d="" fill="#000000" transform="translate(0,0)"/>
<path d="" fill="#000000" transform="translate(0,0)"/>
<path d="" fill="#000000" transform="translate(0,0)"/>
<path d="" fill="#000000" transform="translate(0,0)"/>
<path d="" fill="#000000" transform="translate(0,0)"/>
<path d="" fill="#000000" transform="translate(0,0)"/>
<path d="" fill="#000000" transform="translate(0,0)"/>
<path d="" fill="#000000" transform="translate(0,0)"/>
<path d="" fill="#000000" transform="translate(0,0)"/>
<path d="" fill="#000000" transform="translate(0,0)"/>
<path d="" fill="#000000" transform="translate(0,0)"/>
<path d="" fill="#FFFFFF" transform="translate(0,0)"/>
<path d="" fill="#000000" transform="translate(0,0)"/>
<path d="" fill="#000000" transform="translate(0,0)"/>
<path d="" fill="#000000" transform="translate(0,0)"/>
<path d="" fill="#000000" transform="translate(0,0)"/>
<path d="" fill="#000000" transform="translate(0,0)"/>
<path d="" fill="#000000" transform="translate(0,0)"/>
<path d="" fill="#000000" transform="translate(0,0)"/>
<path d="" fill="#000000" transform="translate(0,0)"/>
<path d="" fill="#000000" transform="translate(0,0)"/>
<path d="" fill="#000000" transform="translate(0,0)"/>
<path d="" fill="#000000" transform="translate(0,0)"/>
<path d="" fill="#000000" transform="translate(0,0)"/>
<path d="" fill="#000000" transform="translate(0,0)"/>
<path d="" fill="#000000" transform="translate(0,0)"/>
<path d="" fill="#000000" transform="translate(0,0)"/>
<path d="" fill="#000000" transform="translate(0,0)"/>
<path d="" fill="#000000" transform="translate(0,0)"/>
<path d="" fill="#000000" transform="translate(0,0)"/>
<path d="" fill="#000000" transform="translate(0,0)"/>
<path d="" fill="#000000" transform="translate(0,0)"/>
<path d="" fill="#000000" transform="translate(0,0)"/>
<path d="" fill="#000000" transform="translate(0,0)"/>
<path d="" fill="#000000" transform="translate(0,0)"/>
<path d="" fill="#000000" transform="translate(0,0)"/>
<path d="" fill="#000000" transform="translate(0,0)"/>
<path d="" fill="#000000" transform="translate(0,0)"/>
<path d="" fill="#000000" transform="translate(0,0)"/>
<path d="" fill="#000000" transform="translate(0,0)"/>
<path d="" fill="#000000" transform="translate(0,0)"/>
<path d="" fill="#000000" transform="translate(0,0)"/>
<path d="" fill="#000000" transform="translate(0,0)"/>
<path d="" fill="#000000" transform="translate(0,0)"/>
<path d="" fill="#000000" transform="translate(0,0)"/>
<path d="" fill="#000000" transform="translate(0,0)"/>
<path d="" fill="#000000" transform="translate(0,0)"/>
<path d="" fill="#000000" transform="translate(0,0)"/>
<path d="" fill="#000000" transform="translate(0,0)"/>
<path d="" fill="#000000" transform="translate(0,0)"/>
<path d="" fill="#000000" transform="translate(0,0)"/>
<path d="" fill="#000000" transform="translate(0,0)"/>
<path d="" fill="#000000" transform="translate(0,0)"/>
<path d="" fill="#000000" transform="translate(0,0)"/>
<path d="" fill="#000000" transform="translate(0,0)"/>
<path d="" fill="#000000" transform="translate(0,0)"/>
<path d="" fill="#000000" transform="translate(0,0)"/>
<path d="" fill="#000000" transform="translate(0,0)"/>
<path d="" fill="#000000" transform="translate(0,0)"/>
<path d="" fill="#000000" transform="translate(0,0)"/>
<path d="" fill="#000000" transform="translate(0,0)"/>
<path d="" fill="#000000" transform="translate(0,0)"/>
<path d="" fill="#000000" transform="translate(0,0)"/>
<path d="" fill="#000000" transform="translate(0,0)"/>
<path d="" fill="#000000" transform="translate(0,0)"/>
<path d="" fill="#000000" transform="translate(0,0)"/>
<path d="" fill="#000000" transform="translate(0,0)"/>
<path d="" fill="#000000" transform="translate(0,0)"/>
</svg>
